<?xml version="1.0" standalone="no"?>
<!DOCTYPE svg PUBLIC "-//W3C//DTD SVG 20010904//EN"
 "http://www.w3.org/TR/2001/REC-SVG-20010904/DTD/svg10.dtd">
<svg version="1.0" xmlns="http://www.w3.org/2000/svg"
 width="3580.000000pt" height="2837.000000pt" viewBox="0 0 3580.000000 2837.000000"
 preserveAspectRatio="xMidYMid meet">

<g transform="translate(0.000000,2837.000000) scale(0.100000,-0.100000)"
fill="#000000" stroke="none">
<path d="M12230 28104 c-1896 -127 -3960 -675 -5900 -1565 -612 -280 -1432
-719 -1775 -949 -350 -235 -672 -547 -858 -830 -67 -102 -172 -317 -203 -415
-53 -166 -54 -563 -4 -775 43 -178 143 -333 345 -536 222 -224 379 -318 607
-364 264 -54 562 -3 865 150 522 262 1083 764 2172 1945 688 745 1069 1131
1436 1456 968 854 1880 1281 2980 1395 208 22 771 25 1000 6 922 -78 1475
-256 2003 -646 146 -108 402 -366 517 -523 369 -502 619 -1175 746 -2003 18
-117 23 -190 23 -380 1 -274 -2 -300 -89 -735 -96 -479 -125 -715 -151 -1200
-4 -71 -10 -435 -13 -808 l-6 -679 -125 -48 c-417 -160 -3438 -1467 -4365
-1888 -1119 -508 -2674 -1293 -3765 -1900 -839 -467 -1395 -803 -2085 -1263
-717 -478 -1241 -866 -1775 -1313 -639 -535 -1340 -1227 -1834 -1811 -743
-876 -1217 -1694 -1531 -2640 -362 -1090 -430 -2234 -199 -3357 182 -888 543
-1705 1053 -2388 231 -309 616 -721 904 -965 1142 -970 2619 -1589 4337 -1814
618 -82 1408 -91 2220 -26 371 30 603 68 945 155 1644 416 3049 1389 4236
2935 476 619 903 1314 1317 2145 173 347 234 478 495 1070 52 118 110 247 128
285 l32 70 10 -40 c5 -24 7 -453 3 -1095 -9 -1558 -26 -2413 -57 -2820 -43
-582 -155 -905 -418 -1207 -243 -278 -506 -403 -1036 -492 -408 -69 -974 -100
-1799 -101 l-399 0 6 -63 c4 -34 9 -139 13 -233 l7 -171 1081 -6 c595 -4 3159
-10 5699 -14 l4617 -6 0 241 c0 187 -3 242 -12 242 -64 0 -1145 31 -1248 35
-864 37 -1189 92 -1529 256 -239 115 -377 229 -495 408 -135 205 -230 416
-272 601 -78 350 -92 754 -100 2900 -5 1359 -4 1523 10 1506 8 -10 70 -143
137 -295 238 -539 288 -649 397 -876 632 -1322 1391 -2433 2247 -3290 774
-775 1599 -1330 2535 -1705 552 -221 1205 -384 1780 -445 529 -57 1631 -35
2325 46 643 74 1548 309 2214 573 1940 772 3236 2098 3831 3922 113 348 220
805 250 1069 31 274 38 1468 10 1770 -22 243 -102 604 -214 970 -313 1023
-860 1992 -1655 2935 -525 622 -1231 1296 -2003 1912 -2243 1792 -5221 3404
-10228 5538 -489 208 -1333 564 -1532 645 l-118 48 0 436 c0 1025 -55 1666
-204 2386 -62 300 -71 380 -70 605 0 173 5 231 28 370 172 1057 494 1793 1007
2301 425 421 1013 699 1709 809 574 90 1282 100 1800 24 621 -90 1208 -304
1789 -653 488 -294 779 -540 1572 -1331 427 -426 646 -655 1068 -1115 1136
-1238 1850 -1770 2459 -1836 242 -26 487 43 712 202 101 71 311 283 389 394
82 117 156 271 188 393 38 144 43 346 14 501 -53 275 -173 547 -340 771 -69
93 -248 279 -361 375 -342 291 -865 606 -1680 1013 -808 404 -1542 707 -2415
998 -1604 533 -3008 788 -4460 811 -1654 25 -3127 -285 -4300 -905 -202 -107
-346 -194 -621 -378 -248 -165 -315 -201 -356 -191 -13 4 -50 29 -83 58 -519
443 -1495 891 -2483 1138 -833 209 -2238 333 -3102 275z m8083 -8013 c2231
-991 3846 -1780 5037 -2459 1281 -730 2240 -1412 3154 -2241 213 -193 773
-753 967 -966 680 -748 1093 -1347 1499 -2170 601 -1218 851 -2365 827 -3790
-20 -1119 -158 -1806 -526 -2615 -285 -624 -651 -1151 -1146 -1645 -301 -302
-613 -555 -937 -761 -658 -417 -1283 -645 -2006 -731 -211 -25 -743 -25 -972
0 -1588 174 -3083 1041 -4196 2433 -768 961 -1438 2235 -1831 3479 -29 94 -90
301 -134 460 l-81 290 6 5270 c5 4739 9 5585 22 5585 3 0 145 -62 317 -139z
m-4419 92 c24 -140 28 -884 33 -5018 5 -4957 2 -5335 -52 -5834 -31 -277 -72
-425 -285 -1026 -394 -1111 -895 -2066 -1511 -2885 -269 -356 -492 -612 -805
-922 -370 -365 -713 -644 -1109 -899 -777 -501 -1569 -787 -2455 -886 -221
-24 -775 -24 -985 1 -711 83 -1343 305 -1977 693 -830 508 -1570 1317 -2023
2213 -366 725 -580 1549 -646 2490 -15 210 -15 765 0 980 78 1156 365 2220
866 3221 1174 2342 3490 4336 7184 6183 809 405 3672 1725 3743 1726 11 0 18
-12 22 -37z"/>
</g>
</svg>
