<?xml version="1.0" standalone="no"?>
<!DOCTYPE svg PUBLIC "-//W3C//DTD SVG 20010904//EN"
 "http://www.w3.org/TR/2001/REC-SVG-20010904/DTD/svg10.dtd">
<svg version="1.0" xmlns="http://www.w3.org/2000/svg"
 width="1853.000000pt" height="1602.000000pt" viewBox="0 0 1853.000000 1602.000000"
 preserveAspectRatio="xMidYMid meet">

<g transform="translate(0.000000,1602.000000) scale(0.100000,-0.100000)"
fill="#000000" stroke="none">
<path d="M9290 13343 c-598 -31 -1286 -249 -1845 -583 -119 -72 -221 -173
-266 -265 -31 -63 -34 -78 -34 -155 0 -101 19 -145 96 -222 62 -62 117 -87
191 -88 161 0 328 124 676 504 212 232 337 353 461 446 245 185 500 263 806
246 220 -12 366 -53 494 -140 156 -107 258 -284 312 -544 27 -134 28 -209 2
-327 -33 -148 -43 -258 -43 -471 l0 -192 -32 -12 c-127 -50 -902 -386 -1073
-465 -467 -216 -953 -474 -1257 -668 -348 -223 -570 -397 -804 -631 -290 -291
-455 -541 -553 -836 -123 -373 -100 -785 65 -1139 234 -501 774 -838 1461
-911 166 -18 480 -8 616 19 654 132 1161 621 1522 1467 26 60 49 111 52 114 3
3 3 -209 0 -470 -5 -501 -11 -579 -56 -683 -24 -56 -81 -121 -135 -152 -87
-50 -265 -75 -539 -75 l-158 0 3 -57 3 -58 1368 -3 1367 -2 0 58 0 59 -232 6
c-249 7 -344 20 -431 60 -73 34 -109 67 -146 136 -61 114 -64 145 -68 686 -3
269 -2 488 0 485 3 -3 26 -54 52 -114 378 -887 935 -1388 1638 -1476 145 -18
488 -8 642 19 784 139 1283 569 1426 1231 20 91 23 134 23 320 0 197 -2 224
-26 325 -132 557 -538 1046 -1278 1542 -542 362 -1243 710 -2402 1193 l-78 32
0 142 c0 187 -16 378 -41 496 -31 141 -33 188 -15 293 57 336 186 543 406 651
117 58 234 83 420 92 297 14 536 -57 783 -233 94 -67 332 -300 538 -526 404
-444 622 -536 811 -341 83 86 111 179 84 284 -48 187 -171 297 -550 489 -317
161 -677 290 -1018 365 -706 157 -1381 75 -1812 -218 -98 -67 -99 -67 -120
-48 -121 110 -392 231 -638 286 -182 41 -493 68 -668 59z m850 -3184 c0 -1446
7 -1309 -73 -1544 -296 -872 -925 -1410 -1607 -1372 -392 22 -768 272 -983
652 -254 451 -245 1108 23 1648 289 581 871 1074 1800 1526 212 103 812 379
828 380 9 1 12 -263 12 -1290z m1312 1140 c952 -432 1418 -719 1819 -1119 233
-233 365 -411 484 -655 144 -296 202 -581 192 -934 -8 -262 -45 -425 -142
-626 -151 -312 -433 -565 -748 -671 -449 -151 -999 27 -1381 447 -231 255
-433 629 -536 994 l-30 108 0 1304 c0 717 2 1303 5 1303 3 0 155 -68 337 -151z"/>
<path d="M12246 6561 c-6 -9 40 -21 84 -21 15 0 35 -9 46 -21 18 -20 19 -47
19 -755 0 -839 9 -765 -95 -772 -33 -2 -60 -8 -60 -13 0 -5 106 -9 235 -9 150
0 235 4 235 10 0 6 -22 10 -49 10 -33 0 -56 6 -72 19 l-24 19 -5 769 -5 768
-152 3 c-83 1 -154 -2 -157 -7z"/>
<path d="M12890 6561 c0 -5 24 -12 54 -15 100 -13 91 67 94 -770 l2 -737 -24
-24 c-20 -20 -35 -25 -76 -25 -27 0 -50 -4 -50 -10 0 -6 85 -10 235 -10 129 0
235 4 235 9 0 5 -27 11 -60 13 -104 7 -95 -71 -98 808 l-2 770 -155 0 c-85 0
-155 -4 -155 -9z"/>
<path d="M6760 6550 c0 -5 20 -10 45 -10 49 0 91 -15 99 -36 3 -7 6 -342 7
-744 1 -840 10 -770 -93 -770 -45 0 -58 -3 -58 -15 0 -13 33 -15 235 -15 202
0 235 2 235 15 0 12 -13 15 -58 15 -105 0 -97 -66 -100 746 -2 487 0 716 8
744 13 47 36 60 106 60 24 0 44 5 44 10 0 6 -85 10 -235 10 -150 0 -235 -4
-235 -10z"/>
<path d="M9350 6550 c0 -5 25 -10 55 -10 43 0 58 -5 75 -22 20 -22 20 -31 20
-785 0 -710 5 -844 25 -720 10 61 30 93 64 105 41 15 88 0 191 -58 139 -78
216 -102 351 -108 95 -3 130 -1 198 17 276 69 453 278 454 536 1 156 -52 283
-164 395 -186 186 -507 234 -728 108 -73 -41 -158 -128 -198 -203 l-32 -60 -1
408 0 407 -155 0 c-97 0 -155 -4 -155 -10z m911 -500 c180 -34 308 -174 344
-377 42 -234 -8 -456 -131 -579 -85 -85 -190 -124 -334 -124 -224 0 -387 115
-451 319 -26 82 -37 278 -20 366 34 181 182 341 362 389 64 17 156 20 230 6z"/>
<path d="M7647 6066 c-146 -40 -236 -201 -194 -347 33 -113 98 -170 314 -276
146 -72 194 -109 224 -169 17 -37 21 -57 16 -103 -12 -135 -87 -204 -222 -204
-98 0 -164 24 -230 85 -61 56 -106 139 -126 231 -7 31 -16 57 -21 57 -11 0 -9
-329 2 -355 7 -17 9 -14 9 13 1 43 17 72 40 72 10 0 49 -20 86 -45 88 -57 149
-77 238 -77 154 1 278 79 323 204 9 24 16 75 16 114 2 151 -71 227 -354 368
-166 83 -212 136 -211 242 1 73 21 116 71 149 154 102 359 -42 404 -284 6 -33
15 -61 20 -61 4 0 8 86 8 190 0 120 -4 190 -10 190 -5 0 -10 -19 -10 -43 0
-42 -13 -67 -35 -67 -6 0 -41 22 -79 50 -103 75 -179 93 -279 66z"/>
<path d="M8695 6065 c-81 -17 -186 -61 -236 -97 -36 -26 -40 -33 -37 -65 7
-81 64 -69 160 33 90 94 156 129 229 122 96 -10 134 -62 145 -198 l6 -85 -153
-67 c-282 -124 -436 -236 -498 -360 -59 -118 -32 -261 61 -329 93 -67 236 -89
344 -52 72 24 151 107 202 213 l41 85 1 -147 0 -148 156 0 c101 0 153 3 149
10 -3 6 -28 10 -54 10 -33 0 -56 6 -72 19 l-24 19 -5 434 -5 434 -26 49 c-57
111 -209 159 -384 120z m265 -497 c0 -201 -13 -288 -55 -373 -75 -155 -219
-224 -336 -162 -94 50 -143 162 -121 281 20 108 81 196 190 273 64 47 284 162
310 163 9 0 12 -43 12 -182z"/>
<path d="M11440 6073 c-45 -7 -152 -44 -199 -68 -171 -86 -287 -264 -298 -456
-21 -338 264 -600 649 -599 151 0 276 40 375 119 52 40 133 134 133 152 0 20
-17 6 -49 -42 -136 -200 -422 -267 -656 -155 -88 42 -147 94 -196 169 -72 111
-108 257 -94 385 l7 62 497 0 c274 0 500 2 503 5 11 11 -13 102 -42 162 -58
118 -210 225 -365 258 -65 14 -206 18 -265 8z m304 -52 c117 -57 198 -172 213
-303 l6 -48 -423 0 -422 0 6 38 c11 58 69 172 114 222 81 91 187 131 339 126
91 -2 109 -6 167 -35z"/>
<path d="M13915 6074 c-134 -34 -259 -94 -281 -135 -17 -34 -5 -74 25 -84 30
-9 69 16 146 97 83 87 122 108 200 108 114 0 154 -53 155 -200 l0 -85 -135
-59 c-375 -163 -540 -313 -538 -491 1 -81 25 -136 84 -189 65 -59 131 -81 239
-81 73 0 92 4 135 27 71 37 129 102 175 193 l40 80 0 -143 0 -142 155 0 c152
0 210 13 98 22 -98 8 -93 -14 -93 449 0 250 -4 417 -11 449 -14 67 -62 127
-124 159 -42 21 -66 25 -150 27 -55 2 -109 0 -120 -2z m229 -793 c-32 -111
-100 -203 -178 -243 -50 -26 -139 -28 -182 -5 -88 46 -129 120 -129 232 0 69
4 89 31 145 55 115 167 206 368 300 l101 47 3 -210 c2 -170 -1 -221 -14 -266z"/>
<path d="M7190 4831 c-442 -97 -705 -425 -677 -845 30 -455 405 -766 921 -766
219 0 373 51 518 172 50 41 130 142 154 193 l14 30 -17 -25 c-113 -157 -177
-216 -302 -278 -116 -58 -207 -76 -350 -69 -137 7 -234 32 -342 88 -313 163
-470 507 -404 885 33 187 88 297 210 419 93 93 182 143 314 176 73 18 105 21
225 16 117 -4 153 -9 215 -30 194 -68 317 -213 373 -440 13 -55 25 -84 31 -78
12 12 -2 551 -14 551 -5 0 -9 -25 -9 -56 0 -30 -5 -64 -10 -75 -19 -34 -73
-24 -178 32 -53 28 -136 65 -186 82 -84 29 -103 31 -246 34 -122 2 -173 -1
-240 -16z"/>
<path d="M8288 4833 c-38 -10 -15 -23 40 -23 106 0 97 71 97 -777 l0 -735 -24
-19 c-16 -13 -39 -19 -77 -19 -30 0 -54 -4 -54 -10 0 -6 85 -10 235 -10 150 0
235 4 235 10 0 6 -23 10 -50 10 -41 0 -56 5 -76 25 l-25 25 3 407 c3 396 4
409 25 448 52 97 145 155 251 155 68 0 92 -8 135 -48 53 -50 57 -85 57 -544
l0 -419 -25 -24 c-19 -20 -34 -25 -75 -25 -27 0 -50 -4 -50 -10 0 -6 85 -10
235 -10 129 0 235 4 235 9 0 5 -27 11 -60 13 -101 7 -94 -25 -100 461 -6 468
-4 457 -74 535 -49 54 -121 83 -221 90 -139 8 -244 -38 -305 -135 l-30 -46 -2
334 -3 334 -140 1 c-77 1 -148 0 -157 -3z"/>
<path d="M13197 4349 c-262 -35 -458 -209 -513 -455 -62 -280 134 -565 440
-644 272 -69 522 -1 667 182 21 28 39 57 39 65 0 8 -21 -13 -46 -47 -80 -106
-184 -171 -312 -196 -235 -46 -472 66 -572 270 -46 95 -61 170 -58 288 l3 103
503 3 502 2 0 24 c0 37 -36 132 -69 180 -113 164 -353 256 -584 225z m251 -41
c132 -49 233 -181 243 -318 l4 -45 -423 -3 -422 -2 6 27 c24 110 82 215 150
271 115 95 296 124 442 70z"/>
<path d="M14246 4344 c-69 -22 -121 -59 -156 -112 -51 -78 -60 -191 -21 -277
35 -78 102 -133 263 -215 181 -92 230 -128 259 -186 40 -84 10 -212 -64 -268
-73 -56 -218 -56 -313 0 -90 52 -169 174 -189 292 -4 23 -11 42 -16 42 -11 0
-11 -264 1 -335 l7 -50 2 42 c1 41 21 73 45 73 6 0 42 -20 79 -44 92 -60 155
-80 247 -79 201 3 334 133 333 324 -1 138 -69 213 -302 334 -222 115 -265 158
-264 267 1 77 27 126 84 158 55 31 136 33 194 5 93 -45 173 -165 197 -294 6
-33 15 -61 20 -61 12 0 10 367 -2 375 -6 4 -10 -11 -10 -37 0 -44 -13 -68 -36
-68 -7 0 -39 20 -72 45 -33 25 -76 52 -95 60 -55 23 -135 27 -191 9z"/>
<path d="M9915 4344 c-124 -31 -257 -93 -282 -131 -29 -44 10 -103 59 -88 11
4 60 47 108 95 98 99 131 115 221 108 101 -7 139 -65 139 -210 l0 -74 -92 -39
c-313 -130 -493 -257 -559 -392 -37 -74 -34 -170 7 -243 33 -59 98 -111 162
-131 20 -6 69 -13 107 -16 155 -11 270 74 352 262 l22 50 1 -147 0 -148 155 0
c151 0 210 13 100 22 -101 8 -95 -17 -95 427 0 212 -5 413 -10 446 -14 87 -53
143 -124 180 -51 26 -70 30 -155 32 -53 1 -105 0 -116 -3z m235 -759 c-16 -82
-73 -187 -128 -236 -158 -138 -372 -36 -372 179 0 182 113 312 385 442 l120
58 3 -192 c2 -115 -2 -215 -8 -251z"/>
<path d="M10975 4335 c-154 -41 -248 -98 -253 -152 -2 -25 2 -35 22 -48 22
-15 27 -15 53 -1 15 8 60 47 98 86 87 89 126 110 202 110 70 0 118 -25 138
-73 7 -18 17 -72 21 -120 l7 -86 -34 -15 c-339 -150 -432 -203 -533 -301 -76
-73 -109 -138 -114 -223 -8 -117 48 -206 160 -258 54 -24 75 -28 153 -29 74 0
98 4 136 23 71 35 135 106 182 201 l42 85 3 -147 3 -147 154 0 c97 0 155 4
155 10 0 6 -17 10 -39 10 -56 0 -101 19 -112 47 -5 13 -9 201 -9 422 0 461 -2
477 -76 548 -28 28 -61 47 -95 58 -64 18 -195 19 -264 0z m285 -482 c0 -209
-10 -286 -50 -370 -31 -68 -97 -146 -144 -170 -81 -43 -169 -33 -236 24 -64
55 -84 103 -84 198 0 177 106 299 374 432 69 34 128 63 133 63 4 0 7 -80 7
-177z"/>
<path d="M11615 4320 c3 -5 26 -10 51 -10 33 0 51 -6 67 -22 15 -16 81 -192
201 -535 110 -316 184 -513 191 -513 8 0 78 194 185 515 190 569 183 555 266
555 24 0 44 5 44 10 0 6 -58 10 -155 10 -97 0 -155 -4 -155 -10 0 -5 24 -10
53 -10 61 0 77 -12 77 -54 0 -30 -225 -723 -240 -739 -4 -5 -21 31 -38 80 -16
48 -70 205 -119 348 -50 143 -93 275 -96 293 -10 48 18 72 83 72 28 0 50 5 50
10 0 6 -85 10 -236 10 -154 0 -233 -3 -229 -10z"/>
</g>
</svg>
