<?xml version="1.0" standalone="no"?>
<!DOCTYPE svg PUBLIC "-//W3C//DTD SVG 20010904//EN"
 "http://www.w3.org/TR/2001/REC-SVG-20010904/DTD/svg10.dtd">
<svg version="1.0" xmlns="http://www.w3.org/2000/svg"
 width="3580.000000pt" height="4278.000000pt" viewBox="0 0 3580.000000 4278.000000"
 preserveAspectRatio="xMidYMid meet">

<g transform="translate(0.000000,4278.000000) scale(0.100000,-0.100000)"
fill="#000000" stroke="none">
<path d="M12260 42520 c-2125 -149 -4372 -781 -6430 -1810 -645 -322 -1163
-619 -1427 -817 -386 -289 -656 -595 -819 -923 -109 -221 -134 -332 -134 -600
0 -250 31 -417 105 -565 61 -124 126 -207 284 -366 195 -195 338 -288 528
-345 121 -36 343 -45 494 -19 345 57 751 287 1204 679 334 289 840 796 1394
1396 939 1016 1355 1422 1866 1816 1171 906 2396 1224 3948 1024 1360 -174
2172 -812 2622 -2055 116 -321 219 -750 271 -1125 21 -155 24 -504 6 -640 -8
-52 -42 -239 -77 -415 -135 -676 -154 -900 -162 -1957 l-6 -736 -86 -33 c-344
-128 -3184 -1355 -4306 -1859 -1323 -595 -3181 -1545 -4435 -2268 -1060 -611
-2135 -1329 -2915 -1948 -1126 -892 -2178 -1977 -2812 -2899 -658 -957 -1070
-2001 -1208 -3060 -78 -598 -71 -1240 21 -1835 157 -1021 542 -1955 1122
-2725 280 -373 681 -785 1057 -1087 999 -804 2280 -1356 3742 -1613 680 -119
1270 -155 2073 -125 614 23 1011 66 1360 147 1352 312 2527 977 3565 2018 967
969 1794 2237 2498 3832 63 142 147 332 187 423 40 91 85 190 100 220 l28 55
7 -140 c9 -155 -10 -2427 -25 -3035 -26 -1029 -75 -1362 -253 -1704 -89 -173
-306 -415 -464 -519 -237 -157 -614 -254 -1193 -307 -318 -29 -571 -39 -1204
-46 l-569 -7 6 -96 c4 -53 10 -157 13 -232 l7 -136 311 -6 c171 -4 2735 -10
5699 -14 l5387 -6 0 240 0 241 -102 6 c-57 3 -301 10 -543 16 -1352 32 -1741
81 -2141 270 -223 105 -388 241 -502 415 -71 107 -183 329 -221 439 -67 191
-102 452 -121 911 -14 354 -31 2154 -28 2965 l3 705 38 -80 c21 -44 95 -208
164 -365 187 -426 253 -571 384 -840 538 -1102 1162 -2053 1868 -2845 153
-172 523 -542 686 -686 1097 -973 2287 -1551 3645 -1773 381 -62 734 -82 1320
-72 1061 16 1597 80 2415 287 2834 719 4640 2485 5155 5040 69 342 85 630 77
1439 -7 701 -15 785 -112 1186 -504 2082 -1906 3914 -4410 5765 -1986 1467
-4577 2864 -8460 4561 -797 349 -2205 947 -2677 1138 l-108 44 0 466 c0 977
-52 1612 -185 2272 -112 551 -118 707 -45 1140 213 1264 676 2091 1443 2574
130 82 387 209 542 267 407 153 863 230 1520 256 1033 42 1911 -177 2770 -692
185 -111 389 -248 515 -346 402 -313 1268 -1163 2045 -2006 747 -811 1171
-1213 1606 -1522 299 -212 577 -346 829 -400 134 -28 337 -24 464 10 113 30
227 83 341 159 111 73 343 307 424 426 217 321 268 647 159 1027 -195 686
-655 1120 -1884 1778 -1308 700 -2726 1249 -4165 1612 -902 228 -1686 353
-2614 417 -251 17 -1217 17 -1450 0 -1094 -81 -1962 -267 -2775 -594 -464
-187 -760 -344 -1220 -648 -273 -181 -353 -225 -393 -215 -13 4 -52 31 -86 61
-495 432 -1499 891 -2487 1138 -476 118 -1156 213 -1929 266 -207 15 -973 21
-1135 10z m3633 -7937 c4 -27 12 -239 19 -473 18 -622 18 -9335 0 -9770 -20
-488 -48 -749 -102 -958 -40 -158 -272 -819 -398 -1137 -674 -1694 -1659
-3057 -2864 -3966 -841 -633 -1764 -1021 -2717 -1139 -947 -117 -1841 35
-2679 454 -518 260 -957 579 -1387 1010 -1032 1034 -1584 2334 -1686 3961 -24
383 -3 1001 47 1419 202 1698 911 3262 2115 4667 374 436 861 922 1339 1335
1299 1120 2982 2172 5082 3175 1083 517 3158 1467 3209 1468 12 1 18 -11 22
-46z m4404 -77 c247 -110 811 -365 1313 -594 2022 -921 3539 -1711 4695 -2445
1257 -799 2294 -1668 3235 -2712 615 -682 1018 -1269 1408 -2050 402 -805 645
-1566 761 -2381 65 -457 85 -754 85 -1284 0 -1181 -135 -1909 -510 -2746 -525
-1171 -1452 -2148 -2571 -2708 -516 -258 -993 -400 -1555 -463 -191 -21 -692
-24 -878 -5 -735 76 -1362 260 -2030 598 -1189 599 -2160 1550 -2976 2914
-545 911 -922 1790 -1215 2835 l-92 330 7 5145 c3 2830 9 5268 12 5418 5 212
10 272 20 272 7 0 138 -56 291 -124z"/>
<path d="M24877 14290 c-149 -9 -167 -12 -167 -33 0 -29 135 -64 285 -73 119
-8 187 -31 238 -80 42 -41 52 -71 67 -199 18 -149 29 -1352 29 -3165 0 -2402
-10 -2757 -88 -2908 -42 -83 -87 -101 -248 -102 -112 0 -236 -17 -283 -37
l-35 -16 35 -8 c19 -5 154 -13 300 -20 302 -13 1393 -6 1529 10 164 19 120 48
-94 61 -178 11 -242 31 -334 101 l-70 53 -5 60 c-3 34 -12 1380 -21 2991 -8
1612 -18 3025 -21 3142 l-6 212 -37 5 c-65 9 -932 14 -1074 6z"/>
<path d="M27505 14288 c-54 -4 -103 -12 -108 -17 -23 -23 110 -57 281 -71 124
-10 164 -20 196 -48 46 -42 78 -156 96 -342 23 -240 30 -875 36 -3315 l7
-2570 -85 -81 c-107 -102 -136 -113 -336 -124 -219 -12 -268 -41 -101 -61 136
-16 1226 -23 1529 -10 146 7 281 15 300 19 33 8 34 9 14 20 -41 22 -121 34
-285 41 -146 7 -171 11 -202 30 -86 53 -118 214 -138 691 -8 193 -25 3605 -28
5508 l-1 342 -537 -1 c-296 -1 -583 -6 -638 -11z"/>
<path d="M2065 14250 c-142 -8 -215 -18 -215 -29 0 -19 65 -33 190 -41 74 -5
155 -13 180 -19 115 -26 198 -71 219 -118 21 -47 32 -1111 34 -3458 2 -2290 0
-2416 -39 -2642 -18 -108 -39 -156 -80 -193 l-35 -30 -192 -1 c-119 0 -207 -5
-232 -13 -35 -10 -40 -15 -40 -41 0 -59 1 -59 960 -60 907 0 962 2 985 44 14
26 -8 50 -55 61 -22 5 -123 10 -225 10 -218 0 -231 5 -274 92 -85 175 -95 564
-97 3503 -1 2045 5 2499 32 2613 24 97 73 168 139 202 61 31 111 40 270 49
150 9 210 20 210 40 0 15 -43 21 -230 31 -196 11 -1304 11 -1505 0z"/>
<path d="M12782 14250 c-107 -9 -142 -16 -142 -30 0 -18 77 -31 236 -39 183
-10 236 -26 296 -89 43 -45 56 -81 69 -198 6 -54 13 -1100 19 -2659 10 -2901
21 -3540 59 -3578 13 -13 17 -2 50 161 36 175 65 256 119 327 47 62 108 100
195 121 153 38 323 -20 761 -260 507 -277 770 -372 1178 -423 97 -12 219 -17
448 -17 344 -1 377 2 612 60 540 132 965 367 1308 721 329 338 523 730 597
1205 22 139 24 504 5 648 -69 498 -269 901 -637 1279 -71 73 -168 164 -215
201 -716 569 -1754 734 -2580 409 -274 -107 -519 -275 -738 -503 -173 -182
-277 -325 -397 -552 -43 -79 -81 -147 -86 -150 -5 -3 -9 692 -9 1685 l0 1691
-527 -1 c-291 -1 -570 -5 -621 -9z m3540 -2096 c747 -91 1306 -616 1508 -1414
32 -124 62 -300 82 -475 19 -165 15 -610 -6 -770 -77 -591 -283 -1050 -612
-1365 -337 -323 -721 -470 -1270 -487 -640 -20 -1146 163 -1520 548 -141 146
-232 276 -327 465 -149 298 -212 600 -236 1144 -17 362 3 618 65 849 178 663
757 1253 1422 1450 250 74 577 94 894 55z"/>
<path d="M10228 12249 c-289 -24 -599 -108 -937 -255 -239 -105 -449 -240
-498 -322 -51 -83 -12 -298 63 -347 40 -26 111 -22 179 9 99 45 183 114 406
332 315 307 496 434 694 484 97 25 250 28 350 7 292 -62 428 -232 489 -614 21
-130 51 -543 40 -552 -5 -4 -126 -58 -269 -120 -966 -420 -1405 -654 -1830
-975 -146 -110 -378 -339 -469 -461 -79 -107 -187 -320 -216 -425 -98 -359
-46 -707 145 -975 281 -394 1036 -593 1589 -418 160 50 275 123 430 273 200
193 307 350 487 715 l129 260 0 -613 0 -614 593 5 c574 5 666 10 674 33 7 21
-61 36 -207 44 -198 12 -265 35 -368 127 l-42 38 -21 1805 -21 1805 -65 125
c-82 157 -132 227 -219 311 -194 185 -458 291 -792 319 -131 11 -174 11 -314
-1z m752 -1379 c21 -40 29 -227 30 -690 0 -755 -27 -1050 -127 -1359 -46 -145
-163 -378 -250 -499 -196 -273 -454 -450 -731 -503 -92 -17 -279 -7 -367 21
-354 111 -611 439 -666 847 -25 187 5 425 81 638 125 351 392 664 795 933 256
170 951 538 1160 613 63 23 62 23 75 -1z"/>
<path d="M21488 12249 c-240 -16 -696 -159 -992 -312 -561 -288 -993 -837
-1152 -1463 -51 -203 -67 -340 -68 -569 0 -363 65 -647 223 -970 353 -720
1068 -1201 2001 -1348 190 -30 718 -32 915 -3 431 61 804 216 1125 464 161
126 435 421 523 564 40 67 46 95 21 105 -23 9 -73 -45 -187 -201 -215 -298
-437 -490 -742 -643 -332 -167 -685 -243 -1075 -230 -229 7 -360 29 -583 93
-338 98 -667 286 -891 508 -272 271 -483 662 -590 1096 -84 343 -96 652 -40
1048 l6 42 1652 1 c1926 1 2503 7 2516 29 37 58 -64 430 -180 665 -132 267
-388 535 -711 740 -215 138 -522 269 -754 323 -245 57 -684 84 -1017 61z m785
-108 c92 -15 169 -43 306 -107 409 -193 714 -536 850 -958 22 -67 44 -146 50
-176 16 -81 48 -339 43 -345 -3 -3 -794 -5 -1759 -5 -1705 0 -1753 1 -1753 19
0 45 33 203 59 281 64 190 193 444 324 640 84 125 254 299 372 381 257 180
542 271 900 288 171 7 515 -3 608 -18z"/>
<path d="M5651 12230 c-258 -52 -461 -164 -636 -352 -203 -218 -325 -526 -325
-818 0 -88 27 -239 61 -346 110 -346 311 -560 779 -834 69 -40 294 -159 500
-265 505 -258 667 -359 796 -498 142 -151 224 -336 224 -504 0 -194 -44 -403
-114 -547 -102 -209 -267 -340 -505 -403 -81 -22 -126 -26 -281 -30 -275 -8
-454 24 -647 112 -214 99 -433 293 -586 523 -130 195 -212 391 -287 692 -32
127 -66 220 -81 220 -19 0 -24 -131 -24 -675 1 -574 9 -759 37 -821 18 -38 28
-28 28 29 1 144 42 276 100 317 65 46 157 11 440 -169 247 -157 449 -246 657
-288 70 -14 135 -18 318 -17 200 0 244 3 335 23 375 80 651 248 858 520 57 76
157 280 177 364 45 188 58 486 30 653 -79 458 -389 742 -1342 1230 -136 70
-300 156 -363 192 -372 210 -540 381 -606 622 -27 95 -27 396 0 495 54 203
168 336 371 435 128 62 188 75 355 74 128 0 155 -4 233 -27 334 -102 625 -371
815 -752 88 -176 122 -282 196 -605 31 -133 52 -188 66 -174 37 37 41 1402 5
1547 -18 72 -44 -2 -55 -158 -9 -132 -27 -196 -67 -237 -34 -36 -73 -44 -115
-22 -31 16 -149 95 -370 247 -188 130 -386 220 -556 253 -104 20 -305 17 -421
-6z"/>
<path d="M31685 12240 c-137 -20 -492 -140 -725 -244 -264 -119 -459 -264
-488 -362 -27 -94 -10 -194 44 -254 88 -97 208 -76 389 68 39 31 180 164 315
297 332 326 440 396 666 426 108 14 305 6 388 -17 147 -39 249 -120 311 -247
72 -148 95 -310 95 -677 l0 -237 -27 -12 c-16 -7 -170 -75 -343 -151 -420
-183 -506 -223 -765 -352 -1052 -527 -1566 -1024 -1656 -1602 -17 -104 -6
-351 20 -453 52 -209 162 -377 346 -532 191 -162 342 -236 577 -283 102 -21
141 -23 398 -23 322 0 349 4 500 76 260 124 492 343 680 644 24 39 94 169 157
290 l113 220 0 -587 0 -588 463 0 c456 0 725 11 801 31 77 21 7 40 -214 58
-186 16 -225 26 -269 70 -98 98 -111 261 -111 1461 0 916 -13 1761 -30 2020
-6 89 -19 194 -30 235 -69 268 -275 510 -544 636 -95 44 -171 66 -283 79 -107
14 -704 21 -778 10z m978 -1562 c11 -369 8 -1362 -4 -1484 -45 -472 -329 -973
-684 -1209 -138 -92 -242 -128 -423 -145 -167 -16 -332 9 -447 67 -187 95
-338 249 -424 435 -81 171 -105 325 -98 607 5 228 17 285 96 462 199 446 563
786 1216 1139 111 60 734 358 751 359 7 1 13 -74 17 -231z"/>
<path d="M4120 7124 c-262 -18 -494 -60 -767 -138 -279 -80 -486 -161 -742
-291 -1145 -581 -1800 -1636 -1801 -2901 0 -824 263 -1567 767 -2165 516 -614
1292 -1039 2198 -1204 263 -48 460 -67 780 -72 716 -13 1204 82 1688 330 437
222 788 539 1086 977 68 100 179 300 167 300 -3 0 -35 -43 -71 -96 -98 -140
-274 -363 -388 -492 -245 -277 -475 -451 -833 -630 -440 -220 -708 -289 -1171
-299 -681 -16 -1210 96 -1718 361 -974 509 -1582 1396 -1731 2528 -21 164 -30
605 -15 779 24 274 80 588 151 836 151 536 372 899 806 1323 267 261 508 425
814 555 171 73 484 163 695 201 127 22 424 28 745 15 445 -19 596 -40 825
-115 591 -196 1042 -582 1322 -1132 113 -221 182 -408 263 -716 66 -247 103
-339 127 -314 42 42 7 1835 -44 2239 -6 52 -22 58 -35 11 -4 -16 -12 -110 -18
-209 -11 -210 -26 -284 -66 -326 -38 -40 -84 -53 -168 -46 -112 9 -239 58
-551 212 -356 176 -596 279 -825 356 -210 70 -328 95 -515 108 -143 11 -876
22 -975 15z"/>
<path d="M8240 7070 c-71 -13 -102 -28 -98 -48 7 -34 72 -45 273 -47 160 0
195 -3 222 -18 65 -35 101 -152 123 -397 21 -234 28 -1355 23 -3596 l-6 -2300
-61 -46 c-113 -85 -146 -94 -376 -107 -239 -14 -268 -43 -64 -63 170 -17 1527
-17 1689 0 201 21 170 49 -69 63 -86 5 -170 15 -197 24 -43 15 -162 105 -213
163 -18 21 -18 56 -7 1438 15 1808 22 1972 87 2110 44 94 144 236 223 318 270
280 632 405 1029 356 150 -19 251 -72 383 -201 114 -111 153 -200 184 -414 33
-238 37 -420 42 -2005 l5 -1586 -84 -76 c-124 -112 -129 -114 -349 -127 -80
-5 -156 -14 -169 -21 -80 -43 117 -54 945 -54 653 0 964 9 984 30 21 20 -86
42 -292 58 -185 15 -225 28 -262 85 -75 114 -90 332 -105 1601 -24 2045 -31
2120 -218 2355 -212 264 -430 389 -802 457 -155 29 -497 31 -637 5 -151 -28
-261 -64 -378 -122 -205 -102 -343 -231 -496 -465 l-94 -144 -7 1010 c-4 555
-10 1181 -14 1392 l-6 382 -582 -1 c-319 -1 -601 -5 -626 -9z"/>
<path d="M28874 5070 c-661 -40 -1267 -302 -1703 -739 -296 -296 -508 -671
-616 -1084 -52 -204 -69 -327 -68 -527 0 -336 66 -614 218 -925 387 -796 1170
-1307 2166 -1414 443 -48 905 2 1279 139 360 131 707 369 935 641 118 141 238
330 217 343 -12 7 -108 -94 -177 -184 -327 -431 -710 -686 -1217 -810 -196
-48 -351 -63 -592 -57 -223 5 -348 22 -533 72 -511 137 -960 459 -1238 888
-115 177 -236 459 -290 677 -55 220 -60 283 -59 728 1 227 4 415 7 418 7 7
2251 23 3350 24 l837 0 0 74 c0 135 -65 344 -180 581 -81 166 -161 283 -289
417 -408 429 -1029 696 -1717 738 -93 5 -178 9 -189 8 -11 0 -74 -4 -141 -8z
m416 -90 c512 -64 912 -306 1187 -720 104 -155 191 -364 227 -540 17 -87 42
-338 33 -346 -7 -7 -1876 -23 -2808 -24 l-707 0 24 103 c88 380 246 713 460
966 130 156 279 269 489 372 200 98 421 164 630 187 114 13 366 14 465 2z"/>
<path d="M33231 5069 c-327 -38 -664 -239 -835 -497 -135 -204 -209 -492 -192
-749 20 -296 131 -544 333 -747 190 -190 392 -319 978 -623 737 -383 920 -535
1007 -840 19 -65 23 -102 23 -228 0 -157 -9 -216 -52 -345 -139 -415 -455
-607 -966 -587 -216 9 -376 47 -550 133 -271 133 -514 397 -686 744 -81 165
-120 278 -166 479 -35 154 -58 212 -76 194 -28 -28 -39 -667 -19 -1065 9 -183
43 -484 55 -496 3 -3 5 28 5 69 0 199 59 337 157 370 44 14 85 -5 338 -161
235 -144 372 -215 510 -263 182 -62 251 -72 520 -72 211 1 253 3 345 23 627
136 1006 559 1061 1182 26 294 -31 542 -171 744 -172 249 -454 451 -1115 801
-503 266 -703 394 -856 545 -81 80 -102 108 -137 180 -59 125 -67 170 -66 365
1 141 4 184 22 250 31 112 77 199 147 274 156 167 378 250 640 238 267 -12
453 -104 672 -331 240 -248 399 -560 488 -959 37 -165 46 -197 65 -239 37 -79
41 -28 47 570 4 489 -4 835 -23 932 -7 33 -28 40 -39 13 -4 -10 -10 -72 -15
-138 -9 -143 -23 -196 -66 -241 -63 -68 -106 -50 -399 160 -318 229 -453 289
-710 315 -121 12 -167 12 -274 0z"/>
<path d="M19735 5043 c-194 -13 -448 -75 -712 -174 -338 -126 -575 -285 -640
-426 -33 -72 -36 -163 -8 -212 24 -41 117 -108 163 -117 80 -16 227 94 560
419 226 221 334 308 445 361 107 51 176 67 327 73 285 12 481 -67 590 -237 39
-60 73 -195 99 -388 26 -190 53 -524 44 -533 -5 -4 -91 -44 -193 -89 -1113
-493 -1576 -737 -1925 -1017 -136 -109 -382 -353 -456 -453 -121 -162 -195
-324 -235 -510 -14 -65 -18 -127 -18 -265 1 -162 3 -190 27 -278 94 -351 368
-621 777 -765 144 -50 206 -57 525 -56 263 0 297 2 366 21 298 83 616 359 830
720 28 48 101 185 162 307 l112 221 6 -270 c4 -148 10 -422 14 -609 l7 -338
572 5 c551 6 686 13 709 36 19 19 -53 38 -174 45 -244 13 -418 92 -448 204
-20 72 -31 598 -37 1682 -8 1688 -20 1884 -127 2110 -35 74 -55 100 -156 201
-223 224 -390 299 -726 328 -111 10 -362 12 -480 4z m839 -1340 c27 -68 30
-1093 6 -1438 -40 -556 -174 -904 -490 -1273 -186 -216 -387 -331 -636 -362
-211 -26 -445 44 -625 188 -211 168 -317 344 -355 585 -23 140 -15 453 15 582
42 187 99 321 207 482 187 281 517 554 989 818 178 100 854 435 876 435 4 0
10 -8 13 -17z"/>
<path d="M15010 5033 c-14 -2 -81 -20 -150 -40 -376 -106 -796 -294 -968 -434
-130 -105 -151 -260 -50 -374 48 -54 109 -79 177 -73 77 8 158 75 553 456 108
104 228 213 265 241 79 60 204 123 283 142 78 20 343 17 440 -5 232 -50 363
-195 421 -466 21 -95 23 -133 23 -405 l1 -299 -320 -136 c-418 -178 -556 -240
-816 -371 -496 -250 -852 -481 -1134 -736 -255 -231 -433 -489 -500 -725 -68
-244 -47 -530 58 -760 140 -306 471 -574 792 -639 239 -49 532 -63 701 -34
410 71 738 337 1004 815 29 52 91 178 136 280 l84 185 0 -614 0 -613 553 5
c579 6 747 16 747 47 0 14 -92 29 -270 44 -180 16 -201 21 -248 60 -97 83
-111 272 -112 1516 0 846 -12 1616 -30 1901 -18 301 -83 492 -230 675 -118
147 -371 295 -585 341 -53 11 -158 16 -435 18 -201 2 -376 1 -390 -2z m992
-2148 c3 -707 -4 -885 -38 -1053 -55 -267 -265 -673 -454 -875 -302 -324 -739
-422 -1095 -248 -431 212 -618 718 -480 1299 106 442 443 830 1029 1181 189
113 289 165 675 352 l346 168 7 -67 c4 -37 9 -377 10 -757z"/>
<path d="M22275 4960 c-137 -8 -195 -16 -195 -30 0 -17 70 -31 201 -40 207
-14 265 -43 324 -160 97 -193 346 -866 833 -2255 430 -1223 715 -1992 756
-2033 10 -11 19 1 48 65 104 227 325 858 873 2493 492 1467 574 1678 705 1811
64 66 103 78 253 80 97 1 178 16 184 35 10 29 -204 43 -642 43 -415 1 -635
-14 -635 -40 0 -20 61 -31 210 -40 220 -12 273 -31 304 -109 27 -67 20 -138
-28 -308 -102 -361 -407 -1315 -675 -2112 -207 -616 -262 -765 -282 -765 -36
0 -86 128 -319 810 -104 303 -262 766 -353 1030 -279 813 -387 1155 -387 1224
0 96 66 176 169 205 34 9 123 21 199 26 133 8 192 20 192 38 0 28 -342 42
-1030 40 -316 -1 -633 -4 -705 -8z"/>
</g>
</svg>
